<mxfile host="app.diagrams.net" modified="2023-12-07T14:48:42.010Z" agent="Mozilla/5.0 (Windows NT 10.0; Win64; x64) AppleWebKit/537.36 (KHTML, like Gecko) Chrome/119.0.0.0 Safari/537.36" etag="3WdTB5w-_feCTIz5qoxJ" version="22.1.7" type="github">
  <diagram name="第 1 页" id="PfVi11UprLy3yS5tFweB">
    <mxGraphModel dx="989" dy="517" grid="1" gridSize="10" guides="1" tooltips="1" connect="1" arrows="1" fold="1" page="1" pageScale="1" pageWidth="827" pageHeight="1169" math="0" shadow="0">
      <root>
        <mxCell id="0" />
        <mxCell id="1" parent="0" />
        <mxCell id="TJ7DOMUj_zDhKh-6PnbW-45" style="edgeStyle=orthogonalEdgeStyle;rounded=0;orthogonalLoop=1;jettySize=auto;html=1;entryX=0.5;entryY=0;entryDx=0;entryDy=0;" edge="1" parent="1" source="TJ7DOMUj_zDhKh-6PnbW-1" target="TJ7DOMUj_zDhKh-6PnbW-40">
          <mxGeometry relative="1" as="geometry">
            <Array as="points">
              <mxPoint x="360" y="630" />
              <mxPoint x="405" y="630" />
            </Array>
          </mxGeometry>
        </mxCell>
        <mxCell id="TJ7DOMUj_zDhKh-6PnbW-1" value="输入：请把桌子上的番茄放在菜板上" style="rounded=1;whiteSpace=wrap;html=1;" vertex="1" parent="1">
          <mxGeometry x="250.00000000000003" y="430" width="240" height="40" as="geometry" />
        </mxCell>
        <mxCell id="TJ7DOMUj_zDhKh-6PnbW-2" value="" style="rounded=1;whiteSpace=wrap;html=1;arcSize=14;" vertex="1" parent="1">
          <mxGeometry x="409" y="140" width="281" height="250" as="geometry" />
        </mxCell>
        <mxCell id="TJ7DOMUj_zDhKh-6PnbW-27" value="" style="edgeStyle=orthogonalEdgeStyle;rounded=0;orthogonalLoop=1;jettySize=auto;html=1;" edge="1" parent="1" source="TJ7DOMUj_zDhKh-6PnbW-4" target="TJ7DOMUj_zDhKh-6PnbW-11">
          <mxGeometry relative="1" as="geometry" />
        </mxCell>
        <mxCell id="TJ7DOMUj_zDhKh-6PnbW-4" value="语义检索" style="rounded=1;whiteSpace=wrap;html=1;fillColor=#dae8fc;strokeColor=#6c8ebf;" vertex="1" parent="1">
          <mxGeometry x="430" y="190" width="110" height="40" as="geometry" />
        </mxCell>
        <mxCell id="TJ7DOMUj_zDhKh-6PnbW-6" value="" style="rounded=1;whiteSpace=wrap;html=1;fillColor=#fff2cc;strokeColor=#d6b656;" vertex="1" parent="1">
          <mxGeometry x="30" y="140" width="350" height="260" as="geometry" />
        </mxCell>
        <mxCell id="TJ7DOMUj_zDhKh-6PnbW-19" style="edgeStyle=orthogonalEdgeStyle;rounded=0;orthogonalLoop=1;jettySize=auto;html=1;exitX=0;exitY=0.5;exitDx=0;exitDy=0;" edge="1" parent="1" source="TJ7DOMUj_zDhKh-6PnbW-4" target="TJ7DOMUj_zDhKh-6PnbW-8">
          <mxGeometry relative="1" as="geometry" />
        </mxCell>
        <mxCell id="TJ7DOMUj_zDhKh-6PnbW-7" value="1.place(object_id, position)：&lt;br&gt;2.open_drawer(drawer_id)：&lt;br&gt;3.pick(object_id)：&lt;br&gt;4.find(object_id)：&lt;br&gt;&lt;b&gt;……&lt;/b&gt;" style="text;html=1;align=left;verticalAlign=middle;whiteSpace=wrap;rounded=0;fillColor=#d5e8d4;strokeColor=#82b366;" vertex="1" parent="1">
          <mxGeometry x="45" y="170" width="195" height="80" as="geometry" />
        </mxCell>
        <mxCell id="TJ7DOMUj_zDhKh-6PnbW-17" value="" style="edgeStyle=orthogonalEdgeStyle;rounded=0;orthogonalLoop=1;jettySize=auto;html=1;" edge="1" parent="1" source="TJ7DOMUj_zDhKh-6PnbW-8" target="TJ7DOMUj_zDhKh-6PnbW-7">
          <mxGeometry relative="1" as="geometry" />
        </mxCell>
        <mxCell id="TJ7DOMUj_zDhKh-6PnbW-8" value="API库" style="rounded=1;whiteSpace=wrap;html=1;fillColor=#e1d5e7;strokeColor=#9673a6;" vertex="1" parent="1">
          <mxGeometry x="275" y="195" width="90" height="30" as="geometry" />
        </mxCell>
        <mxCell id="TJ7DOMUj_zDhKh-6PnbW-10" value="&lt;div style=&quot;text-align: left;&quot;&gt;&lt;span style=&quot;background-color: initial;&quot;&gt;1.pick up the mug in the drawer()：&lt;/span&gt;&lt;/div&gt;&lt;div style=&quot;text-align: left;&quot;&gt;&lt;span style=&quot;background-color: initial;&quot;&gt;&lt;span style=&quot;white-space: pre;&quot;&gt;&#x9;&lt;/span&gt;drawer_id = find(drawer)&lt;/span&gt;&lt;/div&gt;&lt;div style=&quot;text-align: left;&quot;&gt;&lt;span style=&quot;background-color: initial;&quot;&gt;&lt;span style=&quot;white-space: pre;&quot;&gt;&#x9;&lt;/span&gt;open_drawer(drawer_id)&lt;/span&gt;&lt;/div&gt;&lt;div style=&quot;text-align: left;&quot;&gt;&lt;span style=&quot;background-color: initial;&quot;&gt;&lt;span style=&quot;white-space: pre;&quot;&gt;&#x9;&lt;/span&gt;mug_id = find(mug_id)&lt;/span&gt;&lt;/div&gt;&lt;div style=&quot;text-align: left;&quot;&gt;&lt;span style=&quot;background-color: initial;&quot;&gt;&lt;span style=&quot;white-space: pre;&quot;&gt;&#x9;&lt;/span&gt;pick(mug_id)&lt;/span&gt;&lt;/div&gt;&lt;div style=&quot;text-align: left;&quot;&gt;&lt;b&gt;……&lt;/b&gt;&lt;/div&gt;" style="text;html=1;strokeColor=#82b366;fillColor=#d5e8d4;align=center;verticalAlign=middle;whiteSpace=wrap;rounded=0;" vertex="1" parent="1">
          <mxGeometry x="45" y="270" width="195" height="100" as="geometry" />
        </mxCell>
        <mxCell id="TJ7DOMUj_zDhKh-6PnbW-20" style="edgeStyle=orthogonalEdgeStyle;rounded=0;orthogonalLoop=1;jettySize=auto;html=1;exitX=0;exitY=0.5;exitDx=0;exitDy=0;entryX=1;entryY=0.5;entryDx=0;entryDy=0;" edge="1" parent="1" source="TJ7DOMUj_zDhKh-6PnbW-11" target="TJ7DOMUj_zDhKh-6PnbW-15">
          <mxGeometry relative="1" as="geometry" />
        </mxCell>
        <mxCell id="TJ7DOMUj_zDhKh-6PnbW-31" value="" style="edgeStyle=orthogonalEdgeStyle;rounded=0;orthogonalLoop=1;jettySize=auto;html=1;" edge="1" parent="1" source="TJ7DOMUj_zDhKh-6PnbW-11" target="TJ7DOMUj_zDhKh-6PnbW-28">
          <mxGeometry relative="1" as="geometry" />
        </mxCell>
        <mxCell id="TJ7DOMUj_zDhKh-6PnbW-11" value="执行逻辑检索" style="rounded=1;whiteSpace=wrap;html=1;fillColor=#dae8fc;strokeColor=#6c8ebf;" vertex="1" parent="1">
          <mxGeometry x="430" y="300" width="110" height="40" as="geometry" />
        </mxCell>
        <mxCell id="TJ7DOMUj_zDhKh-6PnbW-16" value="" style="edgeStyle=orthogonalEdgeStyle;rounded=0;orthogonalLoop=1;jettySize=auto;html=1;" edge="1" parent="1" source="TJ7DOMUj_zDhKh-6PnbW-15" target="TJ7DOMUj_zDhKh-6PnbW-10">
          <mxGeometry relative="1" as="geometry" />
        </mxCell>
        <mxCell id="TJ7DOMUj_zDhKh-6PnbW-15" value="执行逻辑库" style="rounded=1;whiteSpace=wrap;html=1;fillColor=#e1d5e7;strokeColor=#9673a6;" vertex="1" parent="1">
          <mxGeometry x="275" y="305" width="90" height="30" as="geometry" />
        </mxCell>
        <mxCell id="TJ7DOMUj_zDhKh-6PnbW-21" value="查询" style="text;html=1;strokeColor=none;fillColor=none;align=center;verticalAlign=middle;whiteSpace=wrap;rounded=0;" vertex="1" parent="1">
          <mxGeometry x="365" y="180" width="60" height="30" as="geometry" />
        </mxCell>
        <mxCell id="TJ7DOMUj_zDhKh-6PnbW-22" value="查询" style="text;html=1;strokeColor=none;fillColor=none;align=center;verticalAlign=middle;whiteSpace=wrap;rounded=0;" vertex="1" parent="1">
          <mxGeometry x="365" y="290" width="60" height="30" as="geometry" />
        </mxCell>
        <mxCell id="TJ7DOMUj_zDhKh-6PnbW-28" value="prompt整合" style="rounded=1;whiteSpace=wrap;html=1;fillColor=#dae8fc;strokeColor=#6c8ebf;" vertex="1" parent="1">
          <mxGeometry x="560" y="300" width="110" height="40" as="geometry" />
        </mxCell>
        <mxCell id="TJ7DOMUj_zDhKh-6PnbW-29" style="edgeStyle=orthogonalEdgeStyle;rounded=0;orthogonalLoop=1;jettySize=auto;html=1;entryX=0.464;entryY=-0.08;entryDx=0;entryDy=0;entryPerimeter=0;" edge="1" parent="1">
          <mxGeometry relative="1" as="geometry">
            <mxPoint x="550" y="93" as="sourcePoint" />
            <mxPoint x="611.0399999999997" y="299.99999999999983" as="targetPoint" />
            <Array as="points">
              <mxPoint x="550" y="93" />
              <mxPoint x="550" y="120" />
              <mxPoint x="611" y="120" />
            </Array>
          </mxGeometry>
        </mxCell>
        <mxCell id="TJ7DOMUj_zDhKh-6PnbW-32" value="Text" style="text;html=1;strokeColor=none;fillColor=none;align=center;verticalAlign=middle;whiteSpace=wrap;rounded=0;" vertex="1" parent="1">
          <mxGeometry x="430" y="255" width="60" height="30" as="geometry" />
        </mxCell>
        <mxCell id="TJ7DOMUj_zDhKh-6PnbW-33" value="" style="shape=cylinder3;whiteSpace=wrap;html=1;boundedLbl=1;backgroundOutline=1;size=15;" vertex="1" parent="1">
          <mxGeometry x="384" y="505" width="60" height="80" as="geometry" />
        </mxCell>
        <mxCell id="TJ7DOMUj_zDhKh-6PnbW-41" value="" style="group" vertex="1" connectable="0" parent="1">
          <mxGeometry x="310" y="660" width="190" height="160" as="geometry" />
        </mxCell>
        <mxCell id="TJ7DOMUj_zDhKh-6PnbW-36" value="" style="rounded=0;whiteSpace=wrap;html=1;flipH=1;flipV=1;" vertex="1" parent="TJ7DOMUj_zDhKh-6PnbW-41">
          <mxGeometry x="48" y="60" width="120" height="60" as="geometry" />
        </mxCell>
        <mxCell id="TJ7DOMUj_zDhKh-6PnbW-37" value="" style="rounded=0;whiteSpace=wrap;html=1;flipH=1;flipV=1;" vertex="1" parent="TJ7DOMUj_zDhKh-6PnbW-41">
          <mxGeometry x="35" y="70" width="120" height="60" as="geometry" />
        </mxCell>
        <mxCell id="TJ7DOMUj_zDhKh-6PnbW-38" value="" style="rounded=0;whiteSpace=wrap;html=1;flipH=1;flipV=1;" vertex="1" parent="TJ7DOMUj_zDhKh-6PnbW-41">
          <mxGeometry x="28" y="80" width="120" height="60" as="geometry" />
        </mxCell>
        <mxCell id="TJ7DOMUj_zDhKh-6PnbW-39" value="" style="rounded=0;whiteSpace=wrap;html=1;flipH=1;flipV=1;" vertex="1" parent="TJ7DOMUj_zDhKh-6PnbW-41">
          <mxGeometry x="18" y="90" width="120" height="60" as="geometry" />
        </mxCell>
        <mxCell id="TJ7DOMUj_zDhKh-6PnbW-44" value="" style="group" vertex="1" connectable="0" parent="TJ7DOMUj_zDhKh-6PnbW-41">
          <mxGeometry width="190" height="160" as="geometry" />
        </mxCell>
        <mxCell id="TJ7DOMUj_zDhKh-6PnbW-40" value="" style="rounded=1;whiteSpace=wrap;html=1;fillColor=none;arcSize=7;dashed=1;" vertex="1" parent="TJ7DOMUj_zDhKh-6PnbW-44">
          <mxGeometry width="190" height="160" as="geometry" />
        </mxCell>
        <mxCell id="TJ7DOMUj_zDhKh-6PnbW-42" value="执行逻辑库" style="rounded=1;whiteSpace=wrap;html=1;fillColor=#e1d5e7;strokeColor=#9673a6;" vertex="1" parent="TJ7DOMUj_zDhKh-6PnbW-44">
          <mxGeometry x="50" y="10" width="90" height="30" as="geometry" />
        </mxCell>
        <mxCell id="TJ7DOMUj_zDhKh-6PnbW-43" style="edgeStyle=orthogonalEdgeStyle;rounded=0;orthogonalLoop=1;jettySize=auto;html=1;entryX=0;entryY=0.5;entryDx=0;entryDy=0;entryPerimeter=0;" edge="1" parent="1" source="TJ7DOMUj_zDhKh-6PnbW-1" target="TJ7DOMUj_zDhKh-6PnbW-33">
          <mxGeometry relative="1" as="geometry">
            <Array as="points">
              <mxPoint x="360" y="560" />
              <mxPoint x="384" y="560" />
            </Array>
          </mxGeometry>
        </mxCell>
      </root>
    </mxGraphModel>
  </diagram>
</mxfile>
